<svg width="240" height="150" viewBox="0 0 240 150" xmlns="http://www.w3.org/2000/svg">
  <defs>
    <linearGradient id="hdfcGrad" x1="0%" y1="0%" x2="100%" y2="100%">
      <stop offset="0%" stop-color="#094db2" />
      <stop offset="100%" stop-color="#041e42" />
    </linearGradient>
    <linearGradient id="goldChip" x1="0%" y1="0%" x2="100%" y2="100%">
      <stop offset="0%" stop-color="#ffe066" />
      <stop offset="100%" stop-color="#cc9900" />
    </linearGradient>
  </defs>
  <rect width="240" height="150" rx="14" fill="url(#hdfcGrad)" stroke="#3b82f6" stroke-width="1.5" />
  <circle cx="200" cy="120" r="22" fill="rgba(255,255,255,0.08)" />
  <circle cx="180" cy="120" r="22" fill="rgba(255,255,255,0.08)" />
  
  <!-- EMV Chip -->
  <rect x="22" y="42" width="36" height="26" rx="4" fill="url(#goldChip)" />
  <line x1="22" y1="55" x2="58" y2="55" stroke="#997000" stroke-width="1" />
  <line x1="40" y1="42" x2="40" y2="68" stroke="#997000" stroke-width="1" />

  <!-- Bank Logo & Name -->
  <text x="218" y="32" font-family="'Outfit', sans-serif" font-size="13" font-weight="800" fill="#ffffff" text-anchor="end">HDFC BANK</text>
  <text x="22" y="94" font-family="'Outfit', sans-serif" font-size="11" font-weight="700" fill="#93c5fd" letter-spacing="1">FREEDOM</text>
  <text x="22" y="126" font-family="monospace" font-size="13" font-weight="700" fill="#ffffff" letter-spacing="2">•••• •••• •••• 8842</text>
  
  <!-- Wireless Icon -->
  <path d="M 210 50 A 6 6 0 0 1 210 60 M 213 47 A 10 10 0 0 1 213 63 M 216 44 A 14 14 0 0 1 216 66" stroke="rgba(255,255,255,0.6)" stroke-width="2" fill="none" stroke-linecap="round" />
</svg>
